Coordinates
version=1
nRows=19
nColumns=36
inDegrees=yes

Units are S.I. units (second, meters, Newtons, ...)
If the header above contains a line with 'inDegrees', this indicates whether rotational values are in degrees (yes) or radians (no).

endheader
time	pelvis_tilt	pelvis_list	pelvis_rotation	pelvis_tx	pelvis_ty	pelvis_tz	hip_flexion_r	hip_adduction_r	hip_rotation_r	knee_angle_r	knee_angle_r_beta	ankle_angle_r	subtalar_angle_r	mtp_angle_r	hip_flexion_l	hip_adduction_l	hip_rotation_l	knee_angle_l	knee_angle_l_beta	ankle_angle_l	subtalar_angle_l	mtp_angle_l	lumbar_extension	lumbar_bending	lumbar_rotation	arm_flex_r	arm_add_r	arm_rot_r	elbow_flex_r	pro_sup_r	arm_flex_l	arm_add_l	arm_rot_l	elbow_flex_l	pro_sup_l
     29.98333330	      6.45500555	     -1.25306249	     -2.90096441	      0.39038599	      1.02506176	      0.76557423	    -15.78681009	      0.74201192	      3.02690864	     18.51297732	      0.32311241	     18.18562775	     -5.61883637	     -7.49999987	     14.79991193	     -2.20819823	      0.60899711	     16.91384071	      0.29520221	      1.71150963	     -2.63132764	     -7.49999987	    -19.27941562	     -0.51651744	      5.66470232	      5.58218069	    -15.31134869	      0.52992566	     33.24105684	     85.16519354	      9.68956978	    -10.89490518	     15.65573450	     17.99397165	     92.29640903
     30.00000000	      6.54060083	     -0.87366451	     -3.21295845	      0.39009343	      1.02734658	      0.76249712	    -15.13137056	     -0.05963695	      3.19817430	     21.27990705	      0.37140444	     17.59549793	     -6.72297244	     -7.49999987	     14.13961443	     -1.63450963	      0.46696001	     17.85683257	      0.31166052	      1.40866030	     -3.49974267	     -7.49999987	    -18.98101650	     -1.04419225	      5.93139982	      4.94018390	    -15.06105329	      0.59943838	     32.38167649	     85.09640388	      9.87997459	    -10.99199858	     16.73554433	     17.55011632	     91.68850007
     30.01666670	      6.51706025	     -0.53262189	     -3.55111676	      0.38839441	      1.03143079	      0.75944552	    -14.17816948	     -0.76906472	      3.35996419	     24.04666312	      0.41969345	     17.09915047	     -7.70191680	     -7.49999987	     13.61538113	     -1.11354088	      0.30585734	     18.64747263	      0.32545979	      1.17538436	     -4.42662777	     -7.49999987	    -18.71723785	     -1.57464564	      6.27319390	      4.42458789	    -14.92319234	      0.78446582	     31.59996628	     84.96166198	     10.24681534	    -11.12495845	     17.81303374	     17.31795784	     91.23030590
     30.03333330	      6.47724809	     -0.25047098	     -3.85392120	      0.38774960	      1.03567137	      0.75651214	    -12.87491312	     -1.35170031	      3.49548240	     27.06720805	      0.47241190	     16.47131377	     -8.77087018	     -7.49999987	     13.06345368	     -0.64371596	      0.24337038	     19.32411846	      0.33726949	      1.00941021	     -5.33106782	     -7.49999987	    -18.59586994	     -2.04719585	      6.54061994	      4.01171837	    -14.81217085	      1.07478935	     31.02149202	     84.49826616	     10.65152513	    -11.32189185	     18.76460984	     17.41879830	     90.35038871
     30.05000000	      6.44197985	      0.03223936	     -4.26488711	      0.38988008	      1.03844306	      0.75392228	    -10.97495679	     -1.93377356	      3.74140847	     30.87685409	      0.53890277	     15.44474408	    -10.20559862	     -7.49999987	     12.35150542	     -0.19888851	      0.04766917	     19.83249362	      0.34614231	      0.97549659	     -6.14125281	     -7.49999987	    -18.59217754	     -2.53483767	      6.76306616	      3.67996287	    -14.65916540	      1.01857355	     30.73917269	     84.67177925	     11.00183421	    -11.48982458	     18.92289960	     17.67372558	     90.53706214
     30.06666670	      6.53663383	      0.37084988	     -4.72978643	      0.39425133	      1.03874258	      0.75052589	     -8.67352813	     -2.61986961	      3.99323038	     35.42069767	      0.61820780	     14.02149187	    -11.67564434	     -7.49999987	     11.25359867	      0.35421522	     -0.16503502	     19.94945776	      0.34818372	      1.02762607	     -6.92546946	     -7.49999987	    -18.76707125	     -3.05193726	      6.85974551	      3.45955276	    -14.49887373	      0.92672271	     30.57317635	     84.72358532	     11.25569846	    -11.64369011	     18.93160187	     17.95973665	     90.58437722
     30.08333330	      6.77991541	      0.67393705	     -5.19610882	      0.39728189	      1.03723494	      0.74564065	     -6.25509650	     -3.30793281	      4.18448547	     40.24762145	      0.70245351	     12.53290039	    -12.98540257	     -7.49999987	      9.81000182	      0.94430225	     -0.30920180	     19.70560432	      0.34392768	      1.31262803	     -7.61458496	     -7.49999987	    -19.13693698	     -3.55902509	      6.90928586	      3.28795731	    -14.38349935	      0.82944125	     30.47871263	     84.71889860	     11.43317971	    -11.79717428	     18.86090489	     18.26523302	     90.56169566
     30.10000000	      6.99451717	      0.86760996	     -5.73269045	      0.39620187	      1.03554966	      0.74038091	     -3.75097482	     -3.84204015	      4.41769665	     44.77190619	      0.78141718	     11.28842259	    -14.03889216	     -7.49999987	      8.28318731	      1.46231030	     -0.45226905	     19.14672158	      0.33417333	      1.65515727	     -8.20704210	     -7.49999987	    -19.47233715	     -3.90887414	      7.07199892	      3.09494233	    -14.36774625	      0.73734296	     30.37932974	     84.69818633	     11.56664304	    -11.85714989	     18.75086410	     18.70363898	     90.50224199
     30.11666670	      7.04662072	      0.86617052	     -6.38703366	      0.39307986	      1.03550907	      0.73666432	     -1.15687718	     -4.06032846	      4.64645497	     48.55890358	      0.84751275	     10.63637420	    -14.74270861	     -7.49999987	      6.85678164	      1.75977289	     -0.65652705	     18.35319801	      0.32032373	      1.91131156	     -8.75382521	     -7.49999987	    -19.63943122	     -4.04108197	      7.49707307	      2.84869233	    -14.50075505	      0.61955596	     30.28859424	     84.67059879	     11.58322256	    -11.83495585	     18.56862797	     19.41988336	     90.39542443
     30.13333330	      7.19802546	      0.67741762	     -6.86891772	      0.39244041	      1.03684655	      0.73391740	      1.02661864	     -4.01700710	      4.53906581	     51.39817803	      0.89706744	     10.47714757	    -15.16540100	     -7.49999987	      5.39355434	      1.89381202	     -0.61600812	     17.61181715	      0.30738420	      2.13427240	     -9.34782562	     -7.49999987	    -20.08996383	     -3.91588678	      7.64597897	      2.44858717	    -14.70557757	      0.45715285	     31.03007075	     83.30831661	     11.12329757	    -12.06481683	     17.90056811	     21.45017575	     88.70604320
     30.15000000	      7.32321728	      0.34316280	     -7.44089875	      0.39545302	      1.03803284	      0.73029912	      2.91362071	     -3.82587509	      4.42204926	     53.44608607	      0.93281017	     10.99929197	    -14.68999212	     -7.49999987	      4.03106966	      1.85139743	     -0.81846619	     17.02218293	      0.29709314	      2.58166490	     -9.76470977	     -7.49999987	    -20.14888249	     -3.61345026	      7.95153328	      2.50612789	    -14.84224849	      0.66232175	     30.12280027	     83.63934510	     11.18780245	    -11.80404957	     17.19328922	     21.51438989	     88.89406410
     30.16666670	      7.55899596	      0.05120699	     -7.87567483	      0.39848016	      1.03822929	      0.72469276	      4.29548162	     -3.66777477	      4.31738526	     54.77691945	      0.95603760	     11.27470489	    -14.52742576	     -7.49999987	      2.62513504	      1.89662466	     -1.06009827	     16.45883078	      0.28726079	      3.10559067	     -9.90820523	     -7.49999987	    -20.37923194	     -3.28677588	      8.05366642	      2.31364774	    -15.16188207	      0.93079402	     29.84305814	     83.62270355	     11.03587732	    -11.79162113	     16.73180293	     22.30755544	     88.76985715
     30.18333330	      7.69240735	     -0.27771650	     -8.15440170	      0.39862074	      1.03773682	      0.71828905	      5.47279282	     -3.42891866	      4.24510343	     55.56876063	      0.96985783	     11.46024876	    -14.34889312	     -7.49999987	      1.37733124	      1.94492304	     -1.10928352	     15.85415907	      0.27670728	      3.55925452	    -10.29751474	     -7.49999987	    -20.46706013	     -2.82841788	      8.05708246	      2.09993676	    -15.41687677	      1.13335307	     29.41870330	     83.78004612	     11.06193130	    -11.73070687	     16.39062757	     22.93032434	     88.85354556
     30.20000000	      7.72572555	     -0.55201741	     -8.19943573	      0.39672025	      1.03747219	      0.71316289	      6.60261299	     -3.15550595	      4.18541245	     56.08366921	      0.97884468	     11.38756459	    -14.46350029	     -7.49999987	      0.38698432	      2.02525635	     -1.10686032	     15.41313173	      0.26900990	      4.21880852	    -10.36189061	     -7.49999987	    -20.47135745	     -2.31425185	      7.84073395	      1.82976777	    -15.70520589	      1.12325311	     29.31171528	     83.79107237	     11.34738749	    -11.69011658	     16.40123731	     23.18314693	     88.85159897
     30.21666670	      7.76028844	     -0.78003530	     -8.34529586	      0.39415303	      1.03803733	      0.71102373	      7.70396044	     -2.75672352	      4.39092810	     56.32745626	      0.98309957	     11.08084716	    -14.82966239	     -7.49999987	     -0.60126831	      2.09358411	     -1.46895454	     14.91125716	      0.26025053	      4.95644522	    -10.04207380	     -7.49999987	    -20.46067069	     -1.97529857	      8.15362895	      1.33740914	    -16.10724740	      1.36145998	     29.13881035	     84.03393249	     11.83161752	    -11.67248822	     16.59991095	     23.87158432	     89.02898558
     30.23333330	      7.69158584	     -1.03487912	     -8.24464526	      0.39075959	      1.03869453	      0.71039648	      8.86765026	     -2.24782851	      4.33553914	     56.19261183	      0.98074609	     10.91185006	    -14.95006330	     -7.49999987	     -1.39931825	      2.08314394	     -1.55570345	     14.52187259	      0.25345449	      5.80224278	     -9.65293944	     -7.49999987	    -20.38876695	     -1.50178242	      8.04996353	      1.06989769	    -16.54479970	      2.03405960	     29.20922131	     84.09290265	     12.34601531	    -11.82177097	     17.30663088	     24.34791588	     88.95418994
     30.25000000	      7.40966531	     -1.19153643	     -8.09690189	      0.38713636	      1.03886318	      0.70994683	     10.42613643	     -1.74674897	      4.20923224	     55.83899788	      0.97457436	     10.88666842	    -14.81013030	     -7.49999987	     -1.97657931	      2.14092511	     -1.33167384	     14.08218707	      0.24578053	      6.40115590	     -9.66180408	     -7.49999987	    -20.08677750	     -1.12342424	      7.98437222	      0.91366029	    -16.85107812	      2.47613993	     29.07623554	     83.89938802	     12.93379819	    -11.96173811	     17.87590823	     24.76238417	     88.71527655
     30.26666670	      7.29799165	     -1.39868109	     -7.78278013	      0.38497253	      1.03949336	      0.70930408	     11.82919933	     -1.22550573	      3.87215465	     54.98067473	      0.95959380	     10.95476336	    -14.36863206	     -7.49999987	     -2.85526902	      2.10898395	     -1.12260452	     13.51834932	      0.23593971	      7.22585691	     -9.09934935	     -7.49999987	    -20.10048837	     -0.69001776	      7.82997445	      0.64946463	    -17.17864720	      2.66797643	     29.60636913	     84.14905520	     13.57884684	    -12.16157174	     18.54470851	     25.20952090	     89.12119789
     30.28333330	      7.10711853	     -1.46880237	     -7.40546221	      0.38405552	      1.03993937	      0.70929065	     13.37991820	     -0.88028684	      3.45219009	     53.65956681	      0.93653612	     11.18288603	    -13.68016782	     -7.49999987	     -3.81353161	      2.20309231	     -0.71241977	     12.70564209	      0.22175529	      7.79307642	     -8.79658082	     -7.49999987	    -20.00701724	     -0.42413831	      7.68431491	      0.40473953	    -17.33867352	      2.56258502	     29.97194647	     83.74494593	     14.06492004	    -12.35018739	     18.76303993	     25.90371937	     88.71020522
